<?xml version="1.0" encoding="utf-8"?>
<!-- Generator: Adobe Illustrator 28.3.0, SVG Export Plug-In . SVG Version: 6.00 Build 0)  -->
<svg version="1.1" id="Layer_1" xmlns="http://www.w3.org/2000/svg" xmlns:xlink="http://www.w3.org/1999/xlink" x="0px" y="0px"
	 viewBox="0 0 257.27 72.69" style="enable-background:new 0 0 257.27 72.69;" xml:space="preserve">
<style type="text/css">
	.st0{fill:#505150;}
</style>
<g>
	<g>
		<path class="st0" d="M99.76,32.06c-2.02-17.38-17.09-30.7-34.6-30.59c-14.77,0.09-27.75,9.26-32.74,23.26
			c-0.54,1.51-1.13,2.01-2.79,2.05c-6.21,0.16-10.96,5.09-11.02,11.13c-0.06,6.11,4.78,11.47,11.02,11.26
			c2.9-0.1,3.64,1.07,4.7,3.15c7.3,14.29,23.49,21.69,38.94,17.92c15.87-3.87,26.8-17.7,26.9-33.93
			C100.04,34.9,99.92,33.48,99.76,32.06z M93.28,51.58c-9.14,12.36-25.58,14.15-36.72,5.97c-7.16-5.26-10.64-12.47-10.88-20.61
			c0.07-12.21,7.66-22.34,18.71-25.67c11.04-3.32,22.92,0.97,29.33,10.59c2.14,3.22,1.91,6.61-0.62,9.18
			c-2.46,2.48-6.03,2.74-9.23,0.84c-4.97-2.96-9.97-5.86-15.02-8.68c-3.19-1.79-5.7-0.27-5.72,3.42c-0.05,6.5-0.06,13,0,19.5
			c0.03,3.67,2.57,5.14,5.78,3.35c5.05-2.82,10.04-5.73,15.05-8.63c3.51-2.03,7.1-1.6,9.51,1.17
			C95.88,44.78,95.69,48.33,93.28,51.58z"/>
		<path class="st0" d="M9.22,31.77c-3.94,0.02-7.05,3.14-7.07,7.09c-0.02,4.03,3.17,7.22,7.19,7.18c3.92-0.03,7.06-3.18,7.09-7.09
			C16.46,34.95,13.23,31.74,9.22,31.77z"/>
	</g>
	<g>
		<path class="st0" d="M126.82,32.98c-1.3,0-2.4,0.44-3.29,1.32s-1.33,2.15-1.33,3.8c0,1.63,0.43,2.89,1.29,3.76s1.97,1.3,3.34,1.3
			c0.81,0,1.49-0.11,2.05-0.33c0.56-0.22,1.04-0.46,1.46-0.73c0.27,0.17,0.49,0.36,0.65,0.59c0.17,0.23,0.25,0.5,0.25,0.81
			c0,0.64-0.42,1.17-1.27,1.6c-0.85,0.42-1.95,0.64-3.29,0.64c-1.51,0-2.85-0.28-4-0.84c-1.16-0.56-2.06-1.41-2.72-2.55
			c-0.65-1.14-0.98-2.56-0.98-4.25c0-1.72,0.34-3.15,1.02-4.28c0.68-1.14,1.6-2,2.76-2.58s2.43-0.87,3.82-0.87
			c1.32,0,2.41,0.23,3.24,0.7c0.84,0.47,1.26,1.01,1.26,1.63c0,0.29-0.08,0.55-0.23,0.78c-0.16,0.23-0.35,0.41-0.57,0.56
			c-0.43-0.29-0.92-0.54-1.46-0.75C128.27,33.08,127.61,32.98,126.82,32.98z"/>
		<path class="st0" d="M133.68,26.36c0-0.54,0.19-0.98,0.56-1.33s0.83-0.53,1.37-0.53c0.58,0,1.04,0.18,1.4,0.53
			c0.35,0.35,0.53,0.8,0.53,1.33c0,0.52-0.18,0.96-0.53,1.32s-0.82,0.54-1.4,0.54c-0.54,0-0.99-0.18-1.37-0.54
			C133.87,27.32,133.68,26.88,133.68,26.36z M137.22,38.72h-3.2V30.9c0.14-0.04,0.35-0.09,0.62-0.14c0.27-0.05,0.56-0.08,0.87-0.08
			c0.58,0,1.01,0.11,1.29,0.33s0.42,0.6,0.42,1.13L137.22,38.72L137.22,38.72z M134.02,37.14h3.2v8.13
			c-0.15,0.04-0.35,0.09-0.61,0.16c-0.26,0.06-0.54,0.09-0.85,0.09c-0.58,0-1.01-0.11-1.3-0.34c-0.29-0.23-0.43-0.6-0.43-1.12
			L134.02,37.14L134.02,37.14z"/>
		<path class="st0" d="M153.92,35.8v3.07h-3.2v-2.95c0-1.03-0.29-1.79-0.87-2.27s-1.36-0.71-2.33-0.71c-0.73,0-1.38,0.09-1.96,0.28
			s-1.08,0.39-1.49,0.62v5.03h-3.2v-5.09c0-0.48,0.1-0.86,0.29-1.16c0.2-0.3,0.51-0.58,0.95-0.85c0.58-0.35,1.33-0.67,2.27-0.96
			c0.93-0.29,1.98-0.43,3.14-0.43c2.01,0,3.57,0.45,4.7,1.35C153.36,32.62,153.92,33.98,153.92,35.8z M140.88,37.26h3.2v8.01
			c-0.15,0.04-0.35,0.09-0.61,0.16c-0.26,0.06-0.54,0.09-0.85,0.09c-0.58,0-1.01-0.11-1.3-0.34s-0.43-0.6-0.43-1.12L140.88,37.26
			L140.88,37.26z M150.73,37.26h3.2v8.01c-0.14,0.04-0.35,0.09-0.62,0.16c-0.27,0.06-0.55,0.09-0.84,0.09
			c-0.6,0-1.04-0.11-1.32-0.34s-0.42-0.6-0.42-1.12V37.26z"/>
		<path class="st0" d="M158.77,39.84l-0.16-2.33l8.82-1.24c-0.06-0.97-0.4-1.79-1.02-2.44c-0.62-0.65-1.5-0.98-2.64-0.98
			c-1.16,0-2.12,0.41-2.89,1.24s-1.16,2.01-1.18,3.54l0.06,1.18c0.17,1.47,0.69,2.57,1.58,3.31s2.06,1.1,3.51,1.1
			c0.87,0,1.67-0.13,2.39-0.4s1.3-0.56,1.74-0.87c0.25,0.14,0.45,0.34,0.61,0.59s0.23,0.52,0.23,0.81c0,0.46-0.23,0.87-0.68,1.24
			c-0.46,0.37-1.07,0.66-1.85,0.87s-1.65,0.31-2.62,0.31c-1.59,0-2.99-0.29-4.19-0.88s-2.13-1.47-2.79-2.64
			c-0.66-1.17-0.99-2.6-0.99-4.3c0-1.22,0.18-2.3,0.54-3.24c0.36-0.94,0.86-1.73,1.51-2.38c0.64-0.64,1.4-1.13,2.27-1.46
			c0.87-0.33,1.8-0.5,2.79-0.5c1.3,0,2.46,0.27,3.46,0.82s1.79,1.31,2.34,2.28c0.56,0.97,0.84,2.08,0.84,3.32
			c0,0.52-0.12,0.9-0.37,1.13c-0.25,0.24-0.6,0.39-1.06,0.45L158.77,39.84z"/>
		<path class="st0" d="M185.25,35.27v3.57h-3.17v-3.23c0-0.93-0.27-1.61-0.81-2.03s-1.23-0.64-2.08-0.64
			c-0.58,0-1.13,0.09-1.66,0.28s-0.97,0.39-1.32,0.62v5h-3.2v-5.06c0-0.46,0.1-0.84,0.29-1.15s0.51-0.6,0.95-0.87
			c0.58-0.39,1.32-0.72,2.24-0.99c0.91-0.27,1.83-0.4,2.76-0.4c1.04,0,1.97,0.16,2.79,0.48c0.83,0.32,1.48,0.77,1.96,1.35
			c0.14,0.12,0.27,0.24,0.37,0.36c0.1,0.11,0.2,0.25,0.28,0.42c0.17,0.29,0.3,0.63,0.42,1.02
			C185.19,34.39,185.25,34.82,185.25,35.27z M173.02,37.26h3.2v8.01c-0.15,0.04-0.35,0.09-0.61,0.16c-0.26,0.06-0.54,0.09-0.85,0.09
			c-0.58,0-1.01-0.11-1.3-0.34s-0.43-0.6-0.43-1.12L173.02,37.26L173.02,37.26z M182.08,37.26h3.17v8.01
			c-0.12,0.04-0.32,0.09-0.59,0.16c-0.27,0.06-0.56,0.09-0.87,0.09c-0.58,0-1.01-0.11-1.29-0.34s-0.42-0.6-0.42-1.12L182.08,37.26
			L182.08,37.26z M194.28,35.46v3.38h-3.17v-3.23c0-0.93-0.26-1.61-0.78-2.03s-1.21-0.64-2.08-0.64c-0.64,0-1.26,0.13-1.85,0.4
			s-1.11,0.63-1.57,1.09l-1.49-2.08c0.6-0.54,1.33-1,2.2-1.4s1.88-0.59,3.04-0.59c1.1,0,2.08,0.18,2.93,0.54
			c0.86,0.36,1.53,0.92,2.02,1.68C194.04,33.34,194.28,34.3,194.28,35.46z M191.12,37.26h3.17v8.01c-0.12,0.04-0.32,0.09-0.59,0.16
			c-0.27,0.06-0.55,0.09-0.84,0.09c-0.6,0-1.04-0.11-1.32-0.34c-0.28-0.23-0.42-0.6-0.42-1.12V37.26z"/>
		<path class="st0" d="M211.73,38.07c0,1.55-0.3,2.91-0.9,4.07c-0.6,1.16-1.45,2.05-2.55,2.69s-2.39,0.95-3.88,0.95
			s-2.78-0.32-3.88-0.95s-1.95-1.52-2.55-2.67s-0.9-2.51-0.9-4.08c0-1.57,0.3-2.93,0.92-4.08c0.61-1.15,1.47-2.04,2.58-2.67
			s2.39-0.95,3.83-0.95c1.47,0,2.75,0.32,3.85,0.95c1.1,0.63,1.95,1.52,2.56,2.67C211.42,35.13,211.73,36.49,211.73,38.07z
			 M204.4,32.94c-1.24,0-2.23,0.46-2.96,1.37s-1.1,2.16-1.1,3.76c0,1.61,0.36,2.87,1.07,3.77s1.71,1.35,3,1.35s2.28-0.46,3-1.37
			c0.71-0.91,1.07-2.16,1.07-3.76s-0.36-2.85-1.09-3.76S205.66,32.94,204.4,32.94z"/>
		<path class="st0" d="M217.66,33.91v4.56h-3.2v-4.63c0-0.5,0.11-0.91,0.33-1.23s0.54-0.63,0.98-0.92c0.58-0.37,1.34-0.68,2.28-0.93
			s1.97-0.37,3.09-0.37c1.8,0,2.7,0.51,2.7,1.52c0,0.25-0.04,0.48-0.11,0.68c-0.07,0.21-0.16,0.39-0.26,0.56
			c-0.21-0.04-0.47-0.08-0.79-0.12c-0.32-0.04-0.65-0.06-0.98-0.06c-0.85,0-1.62,0.09-2.31,0.26
			C218.69,33.42,218.11,33.64,217.66,33.91z M214.46,37.14l3.2,0.28v7.85c-0.15,0.04-0.35,0.09-0.61,0.16
			c-0.26,0.06-0.54,0.09-0.85,0.09c-0.58,0-1.01-0.11-1.3-0.34s-0.43-0.6-0.43-1.12L214.46,37.14L214.46,37.14z"/>
		<path class="st0" d="M229.77,45.39c-0.72-0.23-1.28-0.49-1.68-0.78v-2.83c0.39,0.35,0.88,0.67,1.47,0.95s1.29,0.42,2.1,0.42
			c1.35,0,2.42-0.41,3.21-1.24c0.8-0.83,1.2-2.13,1.2-3.91c0-1.24-0.2-2.23-0.59-2.96s-0.92-1.27-1.58-1.6
			c-0.66-0.33-1.39-0.5-2.17-0.5c-0.66,0-1.23,0.08-1.71,0.25c-0.48,0.17-0.89,0.35-1.24,0.56v10.03h-3.2V33.57
			c0-0.44,0.09-0.79,0.26-1.07s0.48-0.55,0.92-0.82c0.58-0.35,1.29-0.66,2.13-0.92s1.79-0.39,2.84-0.39c1.43,0,2.72,0.27,3.87,0.81
			c1.15,0.54,2.05,1.37,2.72,2.48c0.66,1.12,0.99,2.57,0.99,4.35c0,1.72-0.31,3.15-0.92,4.3s-1.46,2.01-2.55,2.58
			c-1.09,0.57-2.32,0.85-3.71,0.85C231.28,45.73,230.49,45.62,229.77,45.39z M228.77,50.89c-0.15,0.06-0.35,0.12-0.61,0.17
			s-0.54,0.08-0.85,0.08c-0.58,0-1.01-0.11-1.3-0.34c-0.29-0.23-0.43-0.61-0.43-1.15v-6.86l3.2,0.06L228.77,50.89L228.77,50.89z"/>
		<path class="st0" d="M245.32,38.72h-3.2V25.18c0.14-0.04,0.35-0.09,0.62-0.16c0.27-0.06,0.56-0.09,0.87-0.09
			c0.58,0,1.01,0.11,1.29,0.33s0.42,0.6,0.42,1.13L245.32,38.72L245.32,38.72z M242.12,37.14h3.2v8.13
			c-0.14,0.04-0.35,0.09-0.61,0.16c-0.26,0.06-0.54,0.09-0.85,0.09c-0.58,0-1.01-0.11-1.3-0.34s-0.43-0.6-0.43-1.12L242.12,37.14
			L242.12,37.14z M255.13,39.09h-3.17v-2.83c0-1.14-0.32-1.98-0.95-2.51c-0.63-0.54-1.43-0.81-2.41-0.81
			c-0.77,0-1.47,0.15-2.11,0.43c-0.64,0.29-1.18,0.63-1.61,1.02l-0.34-2.58c0.48-0.33,1.11-0.66,1.89-0.98
			c0.79-0.32,1.68-0.48,2.67-0.48c1.8,0,3.25,0.48,4.36,1.44c1.11,0.96,1.66,2.41,1.66,4.33L255.13,39.09L255.13,39.09z
			 M251.96,37.17h3.17v8.1c-0.12,0.04-0.32,0.09-0.59,0.16c-0.27,0.06-0.56,0.09-0.87,0.09c-0.58,0-1.01-0.11-1.29-0.34
			s-0.42-0.6-0.42-1.12L251.96,37.17L251.96,37.17z"/>
	</g>
</g>
</svg>
